<mxfile host="app.diagrams.net" modified="2023-12-28T09:13:09.986Z" agent="Mozilla/5.0 (Windows NT 10.0; WOW64) AppleWebKit/537.36 (KHTML, like Gecko) Chrome/94.0.4606.71 Safari/537.36" etag="gw4oCcIVJQTQyQajKMcD" version="22.1.15" type="github">
  <diagram name="第 1 页" id="BougMJAgChbMcbqgJUmi">
    <mxGraphModel dx="1394" dy="718" grid="1" gridSize="10" guides="1" tooltips="1" connect="1" arrows="1" fold="1" page="1" pageScale="1" pageWidth="827" pageHeight="1169" math="0" shadow="0">
      <root>
        <mxCell id="0" />
        <mxCell id="1" parent="0" />
        <mxCell id="md0_Li2v_KzNt2VOVntd-9" style="edgeStyle=orthogonalEdgeStyle;rounded=0;orthogonalLoop=1;jettySize=auto;html=1;" edge="1" parent="1" source="md0_Li2v_KzNt2VOVntd-1" target="md0_Li2v_KzNt2VOVntd-2">
          <mxGeometry relative="1" as="geometry" />
        </mxCell>
        <mxCell id="md0_Li2v_KzNt2VOVntd-1" value="软件库系统" style="rounded=0;whiteSpace=wrap;html=1;" vertex="1" parent="1">
          <mxGeometry x="280" y="130" width="120" height="60" as="geometry" />
        </mxCell>
        <mxCell id="md0_Li2v_KzNt2VOVntd-10" style="edgeStyle=orthogonalEdgeStyle;rounded=0;orthogonalLoop=1;jettySize=auto;html=1;entryX=0.5;entryY=0;entryDx=0;entryDy=0;" edge="1" parent="1" source="md0_Li2v_KzNt2VOVntd-2" target="md0_Li2v_KzNt2VOVntd-3">
          <mxGeometry relative="1" as="geometry" />
        </mxCell>
        <mxCell id="md0_Li2v_KzNt2VOVntd-2" value="openstack" style="rounded=0;whiteSpace=wrap;html=1;" vertex="1" parent="1">
          <mxGeometry x="280" y="230" width="120" height="60" as="geometry" />
        </mxCell>
        <mxCell id="md0_Li2v_KzNt2VOVntd-35" style="edgeStyle=orthogonalEdgeStyle;rounded=0;orthogonalLoop=1;jettySize=auto;html=1;entryX=0.5;entryY=0;entryDx=0;entryDy=0;" edge="1" parent="1" source="md0_Li2v_KzNt2VOVntd-3" target="md0_Li2v_KzNt2VOVntd-34">
          <mxGeometry relative="1" as="geometry" />
        </mxCell>
        <mxCell id="md0_Li2v_KzNt2VOVntd-3" value="libvirt 驱动" style="rounded=0;whiteSpace=wrap;html=1;" vertex="1" parent="1">
          <mxGeometry x="280" y="360" width="120" height="60" as="geometry" />
        </mxCell>
        <mxCell id="md0_Li2v_KzNt2VOVntd-22" style="edgeStyle=orthogonalEdgeStyle;rounded=0;orthogonalLoop=1;jettySize=auto;html=1;" edge="1" parent="1" source="md0_Li2v_KzNt2VOVntd-4" target="md0_Li2v_KzNt2VOVntd-21">
          <mxGeometry relative="1" as="geometry" />
        </mxCell>
        <mxCell id="md0_Li2v_KzNt2VOVntd-4" value="kvm" style="rounded=0;whiteSpace=wrap;html=1;" vertex="1" parent="1">
          <mxGeometry x="169" y="634" width="120" height="60" as="geometry" />
        </mxCell>
        <mxCell id="md0_Li2v_KzNt2VOVntd-18" style="edgeStyle=orthogonalEdgeStyle;rounded=0;orthogonalLoop=1;jettySize=auto;html=1;" edge="1" parent="1" source="md0_Li2v_KzNt2VOVntd-5">
          <mxGeometry relative="1" as="geometry">
            <mxPoint x="449" y="794" as="targetPoint" />
          </mxGeometry>
        </mxCell>
        <mxCell id="md0_Li2v_KzNt2VOVntd-5" value="qemu-kvm" style="rounded=0;whiteSpace=wrap;html=1;" vertex="1" parent="1">
          <mxGeometry x="389" y="634" width="120" height="60" as="geometry" />
        </mxCell>
        <mxCell id="md0_Li2v_KzNt2VOVntd-8" value="FT2000+ 不支持CPU 硬件加速" style="text;html=1;strokeColor=none;fillColor=none;align=center;verticalAlign=middle;whiteSpace=wrap;rounded=0;" vertex="1" parent="1">
          <mxGeometry x="49" y="649" width="90" height="30" as="geometry" />
        </mxCell>
        <mxCell id="md0_Li2v_KzNt2VOVntd-12" style="edgeStyle=orthogonalEdgeStyle;rounded=0;orthogonalLoop=1;jettySize=auto;html=1;" edge="1" parent="1" source="md0_Li2v_KzNt2VOVntd-11" target="md0_Li2v_KzNt2VOVntd-5">
          <mxGeometry relative="1" as="geometry" />
        </mxCell>
        <mxCell id="md0_Li2v_KzNt2VOVntd-14" style="edgeStyle=orthogonalEdgeStyle;rounded=0;orthogonalLoop=1;jettySize=auto;html=1;entryX=0.5;entryY=0;entryDx=0;entryDy=0;" edge="1" parent="1" source="md0_Li2v_KzNt2VOVntd-11" target="md0_Li2v_KzNt2VOVntd-13">
          <mxGeometry relative="1" as="geometry" />
        </mxCell>
        <mxCell id="md0_Li2v_KzNt2VOVntd-11" value="qemu" style="rounded=0;whiteSpace=wrap;html=1;" vertex="1" parent="1">
          <mxGeometry x="569" y="634" width="120" height="60" as="geometry" />
        </mxCell>
        <mxCell id="md0_Li2v_KzNt2VOVntd-17" style="edgeStyle=orthogonalEdgeStyle;rounded=0;orthogonalLoop=1;jettySize=auto;html=1;" edge="1" parent="1" source="md0_Li2v_KzNt2VOVntd-13" target="md0_Li2v_KzNt2VOVntd-16">
          <mxGeometry relative="1" as="geometry" />
        </mxCell>
        <mxCell id="md0_Li2v_KzNt2VOVntd-13" value="x86模拟器" style="rounded=0;whiteSpace=wrap;html=1;" vertex="1" parent="1">
          <mxGeometry x="569" y="734" width="120" height="60" as="geometry" />
        </mxCell>
        <mxCell id="md0_Li2v_KzNt2VOVntd-53" style="edgeStyle=orthogonalEdgeStyle;rounded=0;orthogonalLoop=1;jettySize=auto;html=1;" edge="1" parent="1" source="md0_Li2v_KzNt2VOVntd-16" target="md0_Li2v_KzNt2VOVntd-52">
          <mxGeometry relative="1" as="geometry" />
        </mxCell>
        <mxCell id="md0_Li2v_KzNt2VOVntd-16" value="windows" style="rounded=0;whiteSpace=wrap;html=1;" vertex="1" parent="1">
          <mxGeometry x="569" y="834" width="120" height="60" as="geometry" />
        </mxCell>
        <mxCell id="md0_Li2v_KzNt2VOVntd-19" value="FT2000+ 只支持虚拟arm cpu" style="text;html=1;strokeColor=none;fillColor=none;align=center;verticalAlign=middle;whiteSpace=wrap;rounded=0;" vertex="1" parent="1">
          <mxGeometry x="319" y="739" width="114" height="35" as="geometry" />
        </mxCell>
        <mxCell id="md0_Li2v_KzNt2VOVntd-20" value="失败" style="ellipse;whiteSpace=wrap;html=1;fillColor=#FF9933;" vertex="1" parent="1">
          <mxGeometry x="404" y="794" width="90" height="50" as="geometry" />
        </mxCell>
        <mxCell id="md0_Li2v_KzNt2VOVntd-21" value="失败" style="ellipse;whiteSpace=wrap;html=1;fillColor=#FF8000;" vertex="1" parent="1">
          <mxGeometry x="184" y="794" width="90" height="50" as="geometry" />
        </mxCell>
        <mxCell id="md0_Li2v_KzNt2VOVntd-24" value="FT2000+ 虚拟机创建逻辑" style="text;html=1;strokeColor=none;fillColor=none;align=center;verticalAlign=middle;whiteSpace=wrap;rounded=0;fontStyle=1;fontSize=15;" vertex="1" parent="1">
          <mxGeometry x="20" y="130" width="180" height="50" as="geometry" />
        </mxCell>
        <mxCell id="md0_Li2v_KzNt2VOVntd-25" value="1. 非常卡&lt;br&gt;2. 方案需要调整&lt;br&gt;3. 最次方案" style="text;html=1;strokeColor=none;fillColor=none;align=left;verticalAlign=middle;whiteSpace=wrap;rounded=0;fontStyle=1" vertex="1" parent="1">
          <mxGeometry x="584" y="1010" width="190" height="60" as="geometry" />
        </mxCell>
        <mxCell id="md0_Li2v_KzNt2VOVntd-26" value="x86 机器虚拟机创建逻辑" style="text;html=1;strokeColor=none;fillColor=none;align=center;verticalAlign=middle;whiteSpace=wrap;rounded=0;fontStyle=1;fontSize=15;" vertex="1" parent="1">
          <mxGeometry x="690" y="140" width="170" height="40" as="geometry" />
        </mxCell>
        <mxCell id="md0_Li2v_KzNt2VOVntd-27" style="edgeStyle=orthogonalEdgeStyle;rounded=0;orthogonalLoop=1;jettySize=auto;html=1;" edge="1" parent="1" source="md0_Li2v_KzNt2VOVntd-28" target="md0_Li2v_KzNt2VOVntd-30">
          <mxGeometry relative="1" as="geometry" />
        </mxCell>
        <mxCell id="md0_Li2v_KzNt2VOVntd-28" value="软件库系统" style="rounded=0;whiteSpace=wrap;html=1;" vertex="1" parent="1">
          <mxGeometry x="910" y="130" width="120" height="60" as="geometry" />
        </mxCell>
        <mxCell id="md0_Li2v_KzNt2VOVntd-29" style="edgeStyle=orthogonalEdgeStyle;rounded=0;orthogonalLoop=1;jettySize=auto;html=1;entryX=0.5;entryY=0;entryDx=0;entryDy=0;" edge="1" parent="1" source="md0_Li2v_KzNt2VOVntd-30" target="md0_Li2v_KzNt2VOVntd-31">
          <mxGeometry relative="1" as="geometry" />
        </mxCell>
        <mxCell id="md0_Li2v_KzNt2VOVntd-30" value="openstack" style="rounded=0;whiteSpace=wrap;html=1;" vertex="1" parent="1">
          <mxGeometry x="910" y="230" width="120" height="60" as="geometry" />
        </mxCell>
        <mxCell id="md0_Li2v_KzNt2VOVntd-42" style="edgeStyle=orthogonalEdgeStyle;rounded=0;orthogonalLoop=1;jettySize=auto;html=1;entryX=0.5;entryY=0;entryDx=0;entryDy=0;" edge="1" parent="1" source="md0_Li2v_KzNt2VOVntd-31" target="md0_Li2v_KzNt2VOVntd-41">
          <mxGeometry relative="1" as="geometry" />
        </mxCell>
        <mxCell id="md0_Li2v_KzNt2VOVntd-31" value="libvirt 驱动" style="rounded=0;whiteSpace=wrap;html=1;" vertex="1" parent="1">
          <mxGeometry x="910" y="360" width="120" height="60" as="geometry" />
        </mxCell>
        <mxCell id="md0_Li2v_KzNt2VOVntd-37" style="edgeStyle=orthogonalEdgeStyle;rounded=0;orthogonalLoop=1;jettySize=auto;html=1;" edge="1" parent="1" source="md0_Li2v_KzNt2VOVntd-34" target="md0_Li2v_KzNt2VOVntd-5">
          <mxGeometry relative="1" as="geometry" />
        </mxCell>
        <mxCell id="md0_Li2v_KzNt2VOVntd-34" value="硬件虚拟化" style="rhombus;whiteSpace=wrap;html=1;" vertex="1" parent="1">
          <mxGeometry x="307.5" y="460" width="65" height="50" as="geometry" />
        </mxCell>
        <mxCell id="md0_Li2v_KzNt2VOVntd-36" style="edgeStyle=orthogonalEdgeStyle;rounded=0;orthogonalLoop=1;jettySize=auto;html=1;entryX=0.45;entryY=0;entryDx=0;entryDy=0;entryPerimeter=0;" edge="1" parent="1" source="md0_Li2v_KzNt2VOVntd-34" target="md0_Li2v_KzNt2VOVntd-4">
          <mxGeometry relative="1" as="geometry" />
        </mxCell>
        <mxCell id="md0_Li2v_KzNt2VOVntd-38" value="不支持" style="text;html=1;strokeColor=none;fillColor=none;align=center;verticalAlign=middle;whiteSpace=wrap;rounded=0;" vertex="1" parent="1">
          <mxGeometry x="160" y="580" width="60" height="30" as="geometry" />
        </mxCell>
        <mxCell id="md0_Li2v_KzNt2VOVntd-40" value="支持" style="text;html=1;strokeColor=none;fillColor=none;align=center;verticalAlign=middle;whiteSpace=wrap;rounded=0;" vertex="1" parent="1">
          <mxGeometry x="449" y="570" width="60" height="30" as="geometry" />
        </mxCell>
        <mxCell id="md0_Li2v_KzNt2VOVntd-46" style="edgeStyle=orthogonalEdgeStyle;rounded=0;orthogonalLoop=1;jettySize=auto;html=1;" edge="1" parent="1" source="md0_Li2v_KzNt2VOVntd-41" target="md0_Li2v_KzNt2VOVntd-44">
          <mxGeometry relative="1" as="geometry" />
        </mxCell>
        <mxCell id="md0_Li2v_KzNt2VOVntd-47" style="edgeStyle=orthogonalEdgeStyle;rounded=0;orthogonalLoop=1;jettySize=auto;html=1;" edge="1" parent="1" source="md0_Li2v_KzNt2VOVntd-41" target="md0_Li2v_KzNt2VOVntd-43">
          <mxGeometry relative="1" as="geometry" />
        </mxCell>
        <mxCell id="md0_Li2v_KzNt2VOVntd-41" value="硬件虚拟化" style="rhombus;whiteSpace=wrap;html=1;" vertex="1" parent="1">
          <mxGeometry x="937.5" y="480" width="65" height="50" as="geometry" />
        </mxCell>
        <mxCell id="md0_Li2v_KzNt2VOVntd-54" style="edgeStyle=orthogonalEdgeStyle;rounded=0;orthogonalLoop=1;jettySize=auto;html=1;" edge="1" parent="1" source="md0_Li2v_KzNt2VOVntd-43" target="md0_Li2v_KzNt2VOVntd-51">
          <mxGeometry relative="1" as="geometry" />
        </mxCell>
        <mxCell id="md0_Li2v_KzNt2VOVntd-43" value="kvm" style="rounded=0;whiteSpace=wrap;html=1;" vertex="1" parent="1">
          <mxGeometry x="810" y="634" width="120" height="60" as="geometry" />
        </mxCell>
        <mxCell id="md0_Li2v_KzNt2VOVntd-58" style="edgeStyle=orthogonalEdgeStyle;rounded=0;orthogonalLoop=1;jettySize=auto;html=1;" edge="1" parent="1" source="md0_Li2v_KzNt2VOVntd-44">
          <mxGeometry relative="1" as="geometry">
            <mxPoint x="1090" y="780" as="targetPoint" />
          </mxGeometry>
        </mxCell>
        <mxCell id="md0_Li2v_KzNt2VOVntd-44" value="qemu-kvm" style="rounded=0;whiteSpace=wrap;html=1;" vertex="1" parent="1">
          <mxGeometry x="1030" y="632" width="120" height="60" as="geometry" />
        </mxCell>
        <mxCell id="md0_Li2v_KzNt2VOVntd-48" value="不支持" style="text;html=1;strokeColor=none;fillColor=none;align=center;verticalAlign=middle;whiteSpace=wrap;rounded=0;" vertex="1" parent="1">
          <mxGeometry x="810" y="590" width="60" height="30" as="geometry" />
        </mxCell>
        <mxCell id="md0_Li2v_KzNt2VOVntd-49" value="支持" style="text;html=1;strokeColor=none;fillColor=none;align=center;verticalAlign=middle;whiteSpace=wrap;rounded=0;" vertex="1" parent="1">
          <mxGeometry x="1090" y="590" width="60" height="30" as="geometry" />
        </mxCell>
        <mxCell id="md0_Li2v_KzNt2VOVntd-51" value="成功" style="ellipse;whiteSpace=wrap;html=1;fillColor=#00FF00;" vertex="1" parent="1">
          <mxGeometry x="825" y="784" width="90" height="50" as="geometry" />
        </mxCell>
        <mxCell id="md0_Li2v_KzNt2VOVntd-52" value="成功" style="ellipse;whiteSpace=wrap;html=1;fillColor=#00FF00;" vertex="1" parent="1">
          <mxGeometry x="584" y="942" width="90" height="50" as="geometry" />
        </mxCell>
        <mxCell id="md0_Li2v_KzNt2VOVntd-55" value="1. 性能最好" style="text;html=1;strokeColor=none;fillColor=none;align=left;verticalAlign=middle;whiteSpace=wrap;rounded=0;fontStyle=1" vertex="1" parent="1">
          <mxGeometry x="827" y="834" width="190" height="60" as="geometry" />
        </mxCell>
        <mxCell id="md0_Li2v_KzNt2VOVntd-56" value="成功" style="ellipse;whiteSpace=wrap;html=1;fillColor=#00FF00;" vertex="1" parent="1">
          <mxGeometry x="1045" y="784" width="90" height="50" as="geometry" />
        </mxCell>
        <mxCell id="md0_Li2v_KzNt2VOVntd-57" value="2. 第二方案" style="text;html=1;strokeColor=none;fillColor=none;align=left;verticalAlign=middle;whiteSpace=wrap;rounded=0;fontStyle=1" vertex="1" parent="1">
          <mxGeometry x="1030" y="834" width="190" height="60" as="geometry" />
        </mxCell>
        <mxCell id="md0_Li2v_KzNt2VOVntd-61" value="&lt;h1&gt;解决方案推荐：&lt;/h1&gt;&lt;p&gt;1. 还是基于ft2000+ 做，需要调整程序，废弃openstack ，改用 qemu-x86_64 应用软件创建虚拟机，性能差&lt;br&gt;&lt;br&gt;2. 基于x86 新硬件做&lt;/p&gt;" style="text;html=1;strokeColor=none;fillColor=none;spacing=5;spacingTop=-20;whiteSpace=wrap;overflow=hidden;rounded=0;" vertex="1" parent="1">
          <mxGeometry x="890" y="942" width="340" height="118" as="geometry" />
        </mxCell>
      </root>
    </mxGraphModel>
  </diagram>
</mxfile>
